<?xml version="1.0" encoding="UTF-8"?>
<svg xmlns="http://www.w3.org/2000/svg" xmlns:xlink="http://www.w3.org/1999/xlink" width="25px" height="25px" viewBox="0 0 25 25" version="1.1">
<g id="surface1">
<path style=" stroke:none;fill-rule:nonzero;fill:rgb(0%,0%,0%);fill-opacity:1;" d="M 20.5 2 L 4.5 2 C 3.121094 2 2 3.121094 2 4.5 L 2 20.5 C 2 21.878906 3.121094 23 4.5 23 L 20.5 23 C 21.878906 23 23 21.878906 23 20.5 L 23 4.5 C 23 3.121094 21.878906 2 20.5 2 Z M 18.503906 11.160156 C 18.386719 11.171875 18.273438 11.179688 18.15625 11.179688 C 16.847656 11.179688 15.691406 10.503906 15.023438 9.484375 C 15.023438 12.160156 15.023438 15.203125 15.023438 15.253906 C 15.023438 17.605469 13.113281 19.519531 10.757812 19.519531 C 8.40625 19.519531 6.496094 17.605469 6.496094 15.253906 C 6.496094 12.902344 8.40625 10.988281 10.757812 10.988281 C 10.847656 10.988281 10.9375 11 11.023438 11.003906 L 11.023438 13.105469 C 10.9375 13.09375 10.847656 13.078125 10.757812 13.078125 C 9.558594 13.078125 8.582031 14.050781 8.582031 15.253906 C 8.582031 16.457031 9.558594 17.429688 10.757812 17.429688 C 11.964844 17.429688 13.023438 16.484375 13.023438 15.28125 C 13.023438 15.234375 13.042969 5.484375 13.042969 5.484375 L 15.050781 5.484375 C 15.242188 7.277344 16.691406 8.699219 18.503906 8.828125 Z M 18.503906 11.160156 "/>
</g>
</svg>
